<?xml version="1.0" encoding="utf-8"?>
<!-- Generator: Adobe Illustrator 14.0.0, SVG Export Plug-In . SVG Version: 6.00 Build 43363)  -->
<svg version="1.1" id="Layer_1" xmlns="http://www.w3.org/2000/svg" xmlns:xlink="http://www.w3.org/1999/xlink" x="0px" y="0px"
     width="655px" height="965px" viewBox="0 0 655 965" enable-background="new 0 0 655 965" xml:space="preserve">
    <!-- Generator: Sketch 40 (33762) - http://www.bohemiancoding.com/sketch -->

    <polygon fill="#E53CCD" points="328.018893,0.369047137 491.970368,97.0412969 328.088167,193.235035 164.205966,96.8208716"/>
    <polygon fill="#112FD5" points="491.949585,97.0415649 491.828918,289.084101 328,386.08313 328,193.207825"/>
    <polygon fill="#5DD568" points="328.036743,193.240662 328.036743,386.07427 164.248108,289.3308 164.248108,96.8657837"/>
    <polygon fill="#E53CCD" points="164.766398,289.389859 328.631871,386.605448 164.540165,481.968754 0.450478872,385.679307"/>
    <polygon fill="#5DD568" points="1,385.318748 166.471356,480.596673 166.471356,676.046444 1,578.572303"/>
    <polygon fill="#112FD5" points="328.341,386.207521 328.341,579.075267 165.255223,676.363574 165.255223,481.298135"/>
    <polygon fill="#E53CCD" points="491.08266,289.723873 656.540694,385.727913 492.335869,482.446096 328.131043,385.727913"/>
    <polygon fill="#5DD568" points="328.812935,385.914512 492.140055,482.969034 492.140055,675.182141 328.812935,578.383329"/>
    <polygon fill="#112FD5" points="655.794298,386.315354 655.794298,578.846371 491.336066,675.458584 491.336066,483.114167"/>
    <polygon fill="#E53CCD" points="328.760148,579.20805 493.045603,674.990935 328.760148,770.77382 165.276378,674.990935"/>
    <polygon fill="#5DD568" points="328.356804,770.663243 328.356804,964.408305 164.654183,867.5519 164.654183,674.242235"/>
    <polygon fill="#112FD5" points="492.176914,675.983826 492.176914,866.826237 328.538796,964.313853 328.538796,771.151625"/>

</svg>