<?xml version="1.0" encoding="UTF-8" standalone="no"?>
<!-- Created with Inkscape (http://www.inkscape.org/) -->

<svg
   xmlns:dc="http://purl.org/dc/elements/1.1/"
   xmlns:cc="http://creativecommons.org/ns#"
   xmlns:rdf="http://www.w3.org/1999/02/22-rdf-syntax-ns#"
   xmlns:svg="http://www.w3.org/2000/svg"
   xmlns="http://www.w3.org/2000/svg"
   xmlns:sodipodi="http://sodipodi.sourceforge.net/DTD/sodipodi-0.dtd"
   xmlns:inkscape="http://www.inkscape.org/namespaces/inkscape"
   width="744.09448819"
   height="1052.3622047"
   id="svg3014"
   version="1.1"
   inkscape:version="0.48.4 r9939"
   sodipodi:docname="drawing1.svg">
  <defs
     id="defs3016" />
  <sodipodi:namedview
     id="base"
     pagecolor="#ffffff"
     bordercolor="#666666"
     borderopacity="1.0"
     inkscape:pageopacity="0.0"
     inkscape:pageshadow="2"
     inkscape:zoom="0.7"
     inkscape:cx="454.70831"
     inkscape:cy="624.84436"
     inkscape:document-units="px"
     inkscape:current-layer="layer1"
     showgrid="false"
     inkscape:window-width="1855"
     inkscape:window-height="1056"
     inkscape:window-x="65"
     inkscape:window-y="24"
     inkscape:window-maximized="1" />
  <metadata
     id="metadata3019">
    <rdf:RDF>
      <cc:Work
         rdf:about="">
        <dc:format>image/svg+xml</dc:format>
        <dc:type
           rdf:resource="http://purl.org/dc/dcmitype/StillImage" />
        <dc:title></dc:title>
      </cc:Work>
    </rdf:RDF>
  </metadata>
  <g
     inkscape:label="Layer 1"
     inkscape:groupmode="layer"
     id="layer1">
    <path
       style="fill:none;stroke:#000000;stroke-width:1px;stroke-linecap:butt;stroke-linejoin:miter;stroke-opacity:1"
       d="m 121.42857,282.36218 75.71429,61.42857 347.14285,50 -338.57142,54.28572 -84.28572,82.85714 z"
       id="path3022"
       inkscape:connector-curvature="0" />
    <path
       style="fill:#ffff00"
       d="M 6.7956815,536.85622 C 5.0819015,366.9352 4.3482115,216.50297 5.1653115,202.56241 l 1.48558,-25.34646 111.3367085,83.08417 c 61.23521,45.6963 112.06726,83.08419 112.96014,83.08419 2.7777,0 627.28128,83.39092 825.28096,110.20105 104.1049,14.0963 184.5687,26.72564 180.2104,28.28523 -6.6332,2.37368 -604.1541,91.46342 -895.73971,133.55387 l -87.9075,12.6895 -118.85927,108.84479 C 68.560029,796.82339 13.911992,845.80354 12.492532,845.80354 c -1.41947,0 -3.9830605,-139.02627 -5.6968505,-308.94732 z"
       id="path3064"
       inkscape:connector-curvature="0" />
  </g>
</svg>
