<?xml version="1.0" encoding="utf-8"?>
<!-- Generator: Adobe Illustrator 16.0.4, SVG Export Plug-In . SVG Version: 6.00 Build 0)  -->
<!DOCTYPE svg PUBLIC "-//W3C//DTD SVG 1.1//EN" "http://www.w3.org/Graphics/SVG/1.1/DTD/svg11.dtd">
<svg version="1.1" id="Layer_1" xmlns="http://www.w3.org/2000/svg" xmlns:xlink="http://www.w3.org/1999/xlink" x="0px" y="0px"
width="1000.0px"
height="1000.0px"
viewBox="0 0 1000.0 1000.0" enable-background="new 0 0 1000.0 1000.0"
xml:space="preserve">
<polygon fill="#4D4D4D" points="474.60998535,310.54000854 478.98001099,304.39001465 497.29998779,315.70001221 552.20001221,354.76998901 606.05999756,371.75000000 674.26000977,381.01998901 805.16998291,405.82000732 867.45001221,422.47000122 912.69000244,441.30999756 952.78002930,463.23999023 971.30999756,487.14999390 965.78002930,495.77999878 945.29998779,505.52999878 945.05999756,507.70001221 967.91998291,505.80999756 972.40002441,514.94000244 947.72998047,535.76000977 894.53997803,567.65997314 704.00000000,621.98999023 662.00000000,623.19000244 598.83001709,622.30999756 582.41998291,633.40997314 501.95999146,693.97998047 489.45999146,694.54998779 485.30999756,673.54998779 491.45001221,632.54998779 500.86999512,611.55999756 400.25000000,576.50000000 385.79000854,573.39001465 322.89999390,557.03002930 263.08999634,546.34997559 218.02000427,548.03002930 195.00000000,554.98999023 157.41999817,566.59997559 58.15999985,590.28002930 37.00999832,593.05999756 23.79000092,592.36999512 26.12000084,585.94000244 29.87999916,571.05999756 73.98000336,503.80999756 77.08999634,490.98001099 74.44000244,478.52999878 42.84999847,408.95001221 37.65000153,375.32998657 56.18000031,380.63000488 199.25000000,435.82000732 256.00000000,444.61999512 298.29000854,441.91000366 439.17001343,403.89999390 476.83999634,397.72000122 472.54000854,378.95001221 472.85000610,330.01000977 474.60998535,310.54000854"/>
</svg>
