<!--?xml version="1.0" standalone="no"?-->

<svg version="1.0" xmlns="http://www.w3.org/2000/svg" width="300.000000pt" height="178.000000pt" viewBox="0 0 300.000000 178.000000" preserveAspectRatio="xMidYMid meet">
<g transform="translate(0.000000,178.000000) scale(0.100000,-0.100000)" fill="#030303" stroke="none">
<path class="node" id="node1" d="M1422 1730 c-100 -54 -150 -90 -223 -158 -73 -67 -184 -207 -239
-302 -31 -53 -63 -87 -149 -159 -203 -171 -281 -293 -327 -511 -10 -47 -23
-88 -28 -92 -6 -4 -49 -8 -96 -8 -82 0 -107 4 -247 45 -59 17 -64 17 -82 1
-27 -24 -36 -94 -16 -116 21 -24 127 -57 253 -79 57 -10 105 -21 107 -23 3 -2
-46 -45 -109 -96 -111 -89 -176 -156 -162 -169 4 -4 34 -1 68 6 109 22 296
105 391 174 l49 35 46 -15 c75 -24 223 -21 312 6 l75 22 160 -89 c220 -122
377 -202 387 -196 23 14 -114 175 -226 264 -31 25 -56 48 -56 51 0 3 78 9 173
12 94 4 186 11 202 15 27 7 30 13 33 51 5 63 -15 81 -92 81 -34 0 -101 -7
-151 -15 -85 -15 -165 -12 -165 4 0 14 184 65 230 65 25 0 63 -8 85 -17 28
-11 72 -16 144 -17 l104 0 -49 53 c-59 62 -104 120 -104 134 0 5 29 23 65 40
l65 30 55 -19 c66 -22 175 -48 175 -42 0 3 -13 22 -29 42 -60 74 -58 103 7
166 l41 39 32 -32 c66 -66 352 -186 475 -198 30 -3 54 -3 54 0 0 3 -30 26 -67
50 -72 47 -208 177 -219 209 -22 70 378 592 541 705 l50 35 -60 -4 c-109 -7
-238 -83 -554 -327 -242 -186 -318 -233 -385 -239 -64 -5 -106 10 -106 38 0
11 16 62 35 111 19 50 35 93 35 95 0 11 -85 -33 -175 -91 -55 -35 -113 -69
-128 -74 -37 -14 -121 -14 -208 0 -60 11 -70 15 -75 36 -13 51 6 114 90 299
47 106 86 197 86 203 0 19 -22 12 -98 -29z"></path>
</g>
<g transform="translate(0.000000,178.000000) scale(0.100000,-0.100000)" fill="#9F9F9F" stroke="none">


</g>
</svg>