<?xml version="1.0" encoding="UTF-8" standalone="no"?>
<!-- Generator: Adobe Illustrator 10.0, SVG Export Plug-In . SVG Version: 3.0.0 Build 76)  -->

<svg
   xmlns:ns0="http://ns.adobe.com/SaveForWeb/1.0/"
   xmlns:ns="http://ns.adobe.com/Variables/1.0/"
   xmlns:i="http://ns.adobe.com/AdobeIllustrator/10.0/"
   xmlns:dc="http://purl.org/dc/elements/1.1/"
   xmlns:cc="http://creativecommons.org/ns#"
   xmlns:rdf="http://www.w3.org/1999/02/22-rdf-syntax-ns#"
   xmlns:svg="http://www.w3.org/2000/svg"
   xmlns="http://www.w3.org/2000/svg"
   xmlns:sodipodi="http://sodipodi.sourceforge.net/DTD/sodipodi-0.dtd"
   xmlns:inkscape="http://www.inkscape.org/namespaces/inkscape"
   i:viewOrigin="179.7095 501.8789"
   i:rulerOrigin="0 0"
   i:pageBounds="0 792 612 0"
   width="240.197"
   height="81.737"
   viewBox="0 0 240.197 81.737"
   overflow="visible"
   enable-background="new 0 0 240.197 81.737"
   xml:space="preserve"
   id="svg4010"
   version="1.1"
   inkscape:version="0.48.1 "
   sodipodi:docname="kevenmwebbSharky.svg"><defs
   id="defs4019" /><sodipodi:namedview
   pagecolor="#ffffff"
   bordercolor="#666666"
   borderopacity="1"
   objecttolerance="10"
   gridtolerance="10"
   guidetolerance="10"
   inkscape:pageopacity="0"
   inkscape:pageshadow="2"
   inkscape:window-width="640"
   inkscape:window-height="480"
   id="namedview4017"
   showgrid="false"
   inkscape:zoom="1.9983596"
   inkscape:cx="120.0985"
   inkscape:cy="40.8685"
   inkscape:window-x="0"
   inkscape:window-y="0"
   inkscape:window-maximized="0"
   inkscape:current-layer="svg4010" />
	<metadata
   id="metadata4012">
		<ns:variableSets>
			<ns:variableSet
   varSetName="binding1"
   locked="none">
				<ns:variables />
				<ns:sampleDataSets />
			</ns:variableSet>
		</ns:variableSets>
		<ns0:sfw>
			<ns0:slices />
			<ns0:sliceSourceBounds
   y="420.142"
   x="179.709"
   width="240.196"
   height="81.736"
   bottomLeftOrigin="true" />
		</ns0:sfw>
	<rdf:RDF><cc:Work
     rdf:about=""><dc:format>image/svg+xml</dc:format><dc:type
       rdf:resource="http://purl.org/dc/dcmitype/StillImage" /><dc:title></dc:title></cc:Work></rdf:RDF></metadata>
	<g
   id="Layer_1"
   i:layer="yes"
   i:dimmedPercent="50"
   i:rgbTrio="#4F008000FFFF">
		<path
   i:knockout="Off"
   fill="#FF0000"
   stroke="#000000"
   stroke-width="0.5"
   d="M36.832,43.487    C37.034,43.43,36.627,43.544,36.832,43.487c14.195-3.956,34.877-8.051,53.649-9.562c0,0,82.841-47.345,61.144-29.988    c-23.334,18.667-13.916,30.051-13.916,30.051c27.863,1.735,55.541,8.172,69.412,13.665l9.836-13.504c0,0,36.334-2.574,18.334,0    c-17.688,2.527,14.766,15.61,0,21.24c-14,5.334,0,23.76,0,23.76h-18.334l-7.197-15.816l-6.811,5.853    c-18.473,7.34-53.791,12.302-94.325,12.302c-18.607,0-51.401-2.887-51.401-2.887l-22.232-8.293l-0.117-0.32    c15.555,0,17.75-4.802,17.75-13.5c0,8.698-8.695,10-24.25,10l-1.637,0.742L0.624,57.487c0,0,13.521-6.803,34.812-13.155    c0.091-0.027-0.091,0.027,0,0c0,0.994,3.198,1.624,7.174,1.624c3.976,0,7.2-0.807,7.2-1.801S40.808,43.487,36.832,43.487z"
   id="path4015" />
	</g>
</svg>