<?xml version="1.0" encoding="utf-8"?>
<!-- Generator: Adobe Illustrator 16.0.4 SVG Export Plug-In . SVG Version: 6.00 Build 0)  -->
<!DOCTYPE svg PUBLIC "-//W3C//DTD SVG 1.1//EN" "http://www.w3.org/Graphics/SVG/1.1/DTD/svg11.dtd">
<svg version="1.1" id="Layer_1" xmlns="http://www.w3.org/2000/svg" xmlns:xlink="http://www.w3.org/1999/xlink" x="0px" y="0px"
width="1000.0px"
height="1000.0px"
viewBox="0 0 1000.0 1000.0" enable-background="new 0 0 1000.0 1000.0"
xml:space="preserve">
<polygon fill="#FD5F00" points="3412.0,3187.0 3403.0,2809.0 3383.0,2360.0 3313.0,2188.0 2610.0,1900.0 2240.0,1910.0 2123.0,1892.0 2146.0,1801.0 1565.0,1708.0 1265.0,1811.0 501.0,2319.0 178.0,2442.0 216.0,2372.0 293.0,2248.0 388.0,2157.0 872.0,1787.0 1121.0,1319.0 989.0,909.0 914.0,710.0 998.0,773.0 1122.0,882.0 1364.0,1218.0 1514.0,1381.0 1914.0,1359.0 2186.0,1267.0 2150.0,1206.0 2120.0,1165.0 2296.0,1180.0 2358.0,1227.0 2448.0,1257.0 2787.0,1166.0 2749.0,1086.0 2720.0,1054.0 2794.0,1053.0 2935.0,1091.0 3002.0,1123.0 3219.0,1061.0 3698.0,955.0 3816.0,937.0 3790.0,854.0 3729.0,665.0 3564.0,198.0 3627.0,206.0 3975.0,560.0 4105.0,726.0 4235.0,890.0 4337.0,1001.0 4452.0,1025.0 4641.0,1061.0 4901.0,1066.0 5125.0,1060.0 5192.0,1070.0 5230.0,1129.0 5372.0,1257.0 5423.0,1307.0 5568.0,1410.0 5657.0,1456.0 5402.0,1649.0 4640.0,1980.0 3987.0,2228.0 3882.0,2376.0 3601.0,2909.0 3434.0,3197.0 3412.0,3187.0"/>
</svg>
