<?xml version="1.0" encoding="utf-8"?>
<!-- Generator: Adobe Illustrator 16.0.4 SVG Export Plug-In . SVG Version: 6.00,Build 0)  -->
<!DOCTYPE svg PUBLIC "-//W3C//DTD SVG 1.1//EN" "http://www.w3.org/Graphics/SVG/1.1/DTD/svg11.dtd">
<svg version="1.1" id="Layer_1" xmlns="http://www.w3.org/2000/svg" xmlns:xlink="http://www.w3.org/1999/xlink" x="0px" y="0px"
width="1000.0px"
height="1000.0px"
viewBox="0 0 1000.0 1000.0" enable-background="new 0 0 1000.0 1000.0"
xml:space="preserve">
<polygon fill="#04D604" points="916.0,1624.0 941.0,1472.0 980.0,1348.0 1025.0,1205.0 1057.0,1114.0 1013.0,1142.0 723.0,1265.0 404.0,1186.0 362.0,1160.0 317.0,1204.0 85.0,1276.0 43.0,1178.0 167.0,1050.0 215.0,1041.0 169.0,978.0 80.0,830.0 169.0,681.0 214.0,619.0 169.0,610.0 97.0,578.0 26.0,405.0 181.0,380.0 316.0,455.0 362.0,500.0 404.0,474.0 780.0,400.0 1002.0,505.0 1058.0,545.0 1025.0,455.0 980.0,309.0 962.0,237.0 912.0,69.0 940.0,22.0 1036.0,87.0 1232.0,385.0 1270.0,533.0 1189.0,670.0 1180.0,707.0 1334.0,726.0 1558.0,793.0 1525.0,890.0 1469.0,933.0 1337.0,933.0 1183.0,948.0 1192.0,991.0 1270.0,1123.0 1157.0,1435.0 944.0,1640.0 916.0,1624.0"/>
</svg>
